<?xml version="1.0" encoding="utf-8"?>
<!-- Generator: Adobe Illustrator 27.6.1, SVG Export Plug-In . SVG Version: 6.00 Build 0)  -->
<svg version="1.1" xmlns="http://www.w3.org/2000/svg" xmlns:xlink="http://www.w3.org/1999/xlink" x="0px" y="0px"
	 viewBox="0 0 100.87 59.45" style="enable-background:new 0 0 100.87 59.45;" xml:space="preserve">
<style type="text/css">
	.st0{fill:#37FF8B;}
</style>
<g id="BACKGROUND">
</g>
<g id="OBJECTS">
	<g>
		<path class="st0" d="M21.23,8.75c3.55,0,5.28,3.6,5.52,6.91c0.19,2.74-1.15,12.67-4.32,12.67c-1.01,0-1.92-0.62-2.02-1.78
			c-0.14-1.73,1.82-6.43,1.54-10.08c-0.05-0.82-0.19-1.58-0.53-2.35c-2.02,1.15-4.66,12.62-5.47,15.36c2.16,0,4.27-0.19,6.43-0.24
			c1.44,0,4.56,0.43,4.7,2.54c0.19,2.4-2.06,1.97-3.5,1.97c-2.59,0-5.33,0.62-7.83,1.06c-1.1,0.14-1.49,0.67-1.78,1.68
			c-1.15,4.18-5.66,22.42-10.22,22.47c-2.35,0-2.93-2.59-3.12-4.56c-0.19-2.83,0.19-3.26,2.78-3.46c1.68-4.8,3.31-9.5,4.61-14.45
			c-1.2,0.38-2.88,1.1-4.13,1.1c-1.15,0-2.21-1.06-2.3-2.21c-0.24-3.31,6.05-4.7,8.21-5.09C11.29,24.93,14.6,8.8,21.23,8.75z"/>
		<path class="st0" d="M33.37,20.9C39.81,10.53,50.51,0.35,57.42,0.35c2.21,0,4.03,1.2,4.03,3.84c0,3.5-1.49,3.07-3.7,3.07
			c-4.13,0-12.77,9.02-18.24,17.52c-3.98,6.24-8.59,18.15,1.78,18.15c0.91,0,1.78-0.38,2.74-0.38c1.25,0,2.16,1.01,2.16,2.45
			c0,2.26-4.42,3.79-6.05,3.79C24.78,48.79,27.13,30.98,33.37,20.9z"/>
		<path class="st0" d="M47.72,48.17c-0.58,0.62-1.34,1.2-2.21,1.2c-1.39,0-2.5-1.1-2.5-2.5c0-5.95,13.25-19.87,13.25-21.51
			c0-3.31-1.97-6.91-1.97-10.37c0-1.78,0.38-3.84,2.64-3.84c3.36,0,3.46,6.34,3.84,8.83l0.29,0.62c2.5-2.26,12-12.91,14.55-12.91
			c1.15,0,2.16,0.91,2.16,2.06c0,2.11-14.88,16.85-14.88,18.77c0,2.54,3.36,8.35,5.67,9.5c0.67,0.34,1.15,0.91,1.15,1.73
			c0,1.2-1.01,1.92-2.16,1.92c-3.94,0-6.86-5.81-8.59-8.79C55.69,37.22,51.04,44.57,47.72,48.17z"/>
		<path class="st0" d="M95.63,29.25C89.2,39.62,78.49,49.8,71.58,49.8c-2.21,0-4.03-1.2-4.03-3.84c0-3.5,1.49-3.07,3.7-3.07
			c4.13,0,12.77-9.03,18.24-17.52c3.98-6.24,8.59-18.15-1.78-18.15c-0.91,0-1.78,0.38-2.74,0.38c-1.25,0-2.16-1.01-2.16-2.45
			c0-2.26,4.42-3.79,6.05-3.79C104.22,1.36,101.87,19.17,95.63,29.25z"/>
	</g>
</g>
</svg>
